<svg xmlns="http://www.w3.org/2000/svg" width="60" height="60" viewBox="0 0 60 60">
  <g id="Outline" transform="translate(-2 -2)">
    <path id="Path_533" data-name="Path 533" d="M45.62,6.08a1.032,1.032,0,0,0-.33.21,1.155,1.155,0,0,0-.21.33A1,1,0,0,0,45,7a1.052,1.052,0,0,0,.29.71,1.032,1.032,0,0,0,.33.21,1,1,0,1,0,0-1.84Z" fill="#1194ea"/>
    <path id="Path_534" data-name="Path 534" d="M50.71,6.29a1,1,0,0,0-1.09-.21,1.032,1.032,0,0,0-.33.21.933.933,0,0,0-.21.33A1,1,0,0,0,49,7a.96.96,0,0,0,.62.92A1,1,0,0,0,50,8a1.033,1.033,0,0,0,.71-.29A1.052,1.052,0,0,0,51,7a1,1,0,0,0-.08-.38,1.032,1.032,0,0,0-.21-.33Z" fill="#1194ea"/>
    <path id="Path_535" data-name="Path 535" d="M54.92,6.62a.757.757,0,0,0-.09-.18,1.577,1.577,0,0,0-.12-.15A1,1,0,1,0,55,7a1.225,1.225,0,0,0-.02-.19.6.6,0,0,0-.06-.19Z" fill="#1194ea"/>
    <path id="Path_536" data-name="Path 536" d="M12.947,47a5.6,5.6,0,0,0,2.865,2.34,3.991,3.991,0,0,0,2.93,3.354,4.043,4.043,0,0,0,1.042.138,3.983,3.983,0,0,0,3.876-3.093c.153-.025.3-.049.458-.078C25.933,54.763,28.761,58,32,58s6.068-3.238,7.884-8.342a22.34,22.34,0,0,0,4,.4c3.4,0,5.982-1,7.171-3.061a5.594,5.594,0,0,0,.6-3.648A4,4,0,0,0,48.194,36.3c-.042.011-.078.033-.12.045-.1-.118-.194-.237-.3-.355,3.51-4.124,4.9-8.191,3.281-11s-5.839-3.636-11.169-2.656C38.068,17.239,35.24,14,32,14a5.6,5.6,0,0,0-3.459,1.31,3.991,3.991,0,0,0-4.27,6.6c-.054.145-.108.288-.16.435C18.784,21.366,14.567,22.2,12.947,25s-.228,6.875,3.285,11C12.719,40.125,11.327,44.194,12.947,47Zm8.762,2.348a2,2,0,1,1-.2-1.518,2,2,0,0,1,.2,1.518ZM24,36c0-1.535.08-3.042.221-4.508,1.166-.825,2.423-1.637,3.779-2.42S30.7,27.6,32,27c1.3.6,2.639,1.284,4,2.07,1.33.768,2.594,1.59,3.794,2.445C39.926,32.939,40,34.434,40,36s-.075,3.071-.208,4.5c-1.17.828-2.431,1.643-3.792,2.429-1.33.768-2.675,1.451-4.015,2.063-1.3-.6-2.629-1.28-3.985-2.063s-2.622-1.6-3.792-2.429C24.075,39.071,24,37.572,24,36Zm-1.908,2.891A35.35,35.35,0,0,1,18.9,36a35.546,35.546,0,0,1,3.2-2.893c-.062.955-.1,1.917-.1,2.893S22.038,37.944,22.092,38.891Zm2.461-10.033a35.637,35.637,0,0,1,.916-4.2,35.324,35.324,0,0,1,4.081,1.314c-.847.427-1.7.874-2.55,1.366s-1.658,1-2.447,1.52Zm9.9-2.885a35.257,35.257,0,0,1,4.1-1.319,35.379,35.379,0,0,1,.907,4.213c-.8-.525-1.613-1.04-2.458-1.528s-1.7-.939-2.552-1.366Zm7.459,7.148a35.714,35.714,0,0,1,3.178,2.894,35.578,35.578,0,0,1-3.179,2.876C41.962,37.944,42,36.985,42,36s-.037-1.936-.091-2.879ZM39.458,43.135a35.385,35.385,0,0,1-.907,4.211,35.488,35.488,0,0,1-4.1-1.32c.854-.429,1.707-.878,2.552-1.365S38.665,43.656,39.458,43.135ZM27,44.661c.847.489,1.692.938,2.533,1.362a35.683,35.683,0,0,1-4.089,1.3,35.292,35.292,0,0,1-.9-4.191C25.335,43.656,26.147,44.168,27,44.661ZM32,56c-2.15,0-4.382-2.495-5.942-6.764A39.87,39.87,0,0,0,32,47.174a39.237,39.237,0,0,0,5.943,2.06C36.383,53.505,34.15,56,32,56ZM49.32,46c-1.075,1.863-4.355,2.549-8.836,1.762a39.27,39.27,0,0,0,1.191-6.176,40.329,40.329,0,0,0,4.153-3.514c-.021.035-.049.063-.07.1a4,4,0,0,0,3.458,6,3.92,3.92,0,0,0,.506-.033A3.411,3.411,0,0,1,49.32,46Zm.9-7.562a2,2,0,1,1-2.411.316,2,2,0,0,1,2.411-.316ZM49.32,26c1.075,1.862.031,5.043-2.887,8.528a39.69,39.69,0,0,0-4.759-4.116,39.111,39.111,0,0,0-1.19-6.174C44.965,23.451,48.245,24.137,49.32,26ZM37.944,22.772A39.247,39.247,0,0,0,32,24.828a40.255,40.255,0,0,0-5.119-1.84c.041,0,.078.012.119.012a4,4,0,0,0,4-4,3.96,3.96,0,0,0-.828-2.409A3.421,3.421,0,0,1,32,16C34.151,16,36.385,18.5,37.944,22.772ZM27,17a2,2,0,1,1-2,2A2,2,0,0,1,27,17ZM14.68,26c1.074-1.862,4.351-2.548,8.829-1.764a39.972,39.972,0,0,0-1.186,6.18,39.2,39.2,0,0,0-4.751,4.118C14.65,31.046,13.6,27.863,14.68,26Zm2.892,11.466a39.245,39.245,0,0,0,4.753,4.12,40.227,40.227,0,0,0,.967,5.355c-.02-.036-.03-.075-.05-.111a4,4,0,0,0-5.465-1.464h0A3.967,3.967,0,0,0,16.1,47.287,3.414,3.414,0,0,1,14.68,46C13.6,44.137,14.65,40.954,17.572,37.466Z" fill="#1194ea"/>
    <path id="Path_537" data-name="Path 537" d="M38,36a6,6,0,1,0-6,6,6,6,0,0,0,6-6ZM28,36a4,4,0,1,1,4,4A4,4,0,0,1,28,36Z" fill="#1194ea"/>
    <path id="Path_538" data-name="Path 538" d="M53,2H11a9.011,9.011,0,0,0-9,9V53a9.011,9.011,0,0,0,9,9H53a9.011,9.011,0,0,0,9-9V11a9.011,9.011,0,0,0-9-9ZM11,4H53a7.011,7.011,0,0,1,6.929,6H4.071A7.011,7.011,0,0,1,11,4ZM60,53a7.008,7.008,0,0,1-7,7H11a7.008,7.008,0,0,1-7-7V12H60Z" fill="#1194ea"/>
  </g>
</svg>
