<svg xmlns="http://www.w3.org/2000/svg" width="62" height="62" viewBox="0 0 62 62">
  <g id="os" transform="translate(-1 -1)">
    <path id="Path_572" data-name="Path 572" d="M45,23a4,4,0,1,0-4-4A4,4,0,0,0,45,23Zm0-6a2,2,0,1,1-2,2A2,2,0,0,1,45,17Z" fill="#1194ea"/>
    <path id="Path_573" data-name="Path 573" d="M23,33a2,2,0,0,1-2-2H19a4,4,0,1,0,4-4,2,2,0,1,1,2-2h2a4,4,0,1,0-4,4,2,2,0,0,1,0,4Z" fill="#1194ea"/>
    <path id="Path_574" data-name="Path 574" d="M13,35a4,4,0,0,0,4-4V25a4,4,0,0,0-8,0v6A4,4,0,0,0,13,35ZM11,25a2,2,0,0,1,4,0v6a2,2,0,0,1-4,0Z" fill="#1194ea"/>
    <path id="Path_575" data-name="Path 575" d="M63,19a17.988,17.988,0,0,0-34.95-6H6a5.006,5.006,0,0,0-5,5V46a5.006,5.006,0,0,0,5,5H22v2H16.236a2.985,2.985,0,0,0-2.683,1.658L12,57.764V63H44V57.764l-1.553-3.1A2.983,2.983,0,0,0,39.764,53H34V51H50a5.006,5.006,0,0,0,5-5V33.956A17.993,17.993,0,0,0,63,19ZM53.5,32.529l-5.057-6.321a8,8,0,0,0,1.45-.9l5.67,5.67A16.087,16.087,0,0,1,53.5,32.529ZM37.792,15.553,31.472,10.5a16.167,16.167,0,0,1,1.547-2.064l5.67,5.67a8,8,0,0,0-.9,1.451Zm2.31-2.865-5.67-5.67A16.167,16.167,0,0,1,36.5,5.471l5.057,6.321a8.047,8.047,0,0,0-1.451.9ZM45,13a6,6,0,1,1-6,6A6.006,6.006,0,0,1,45,13Zm6.312,10.9a8.017,8.017,0,0,0,.9-1.451l6.32,5.057a15.994,15.994,0,0,1-1.547,2.063ZM61,19a15.871,15.871,0,0,1-1.5,6.72l-6.633-5.307a7.963,7.963,0,0,0-9.28-9.28L38.28,4.5A15.966,15.966,0,0,1,61,19ZM30.5,12.28l6.633,5.307a7.963,7.963,0,0,0,9.28,9.28L51.72,33.5A15.964,15.964,0,0,1,30.5,12.28ZM29,27.208V37H7V19H27A17.86,17.86,0,0,0,29,27.208ZM16.236,55H22v2H14.618l.724-1.447A.994.994,0,0,1,16.236,55ZM14,61V59H42v2Zm25.764-6a.994.994,0,0,1,.894.553L41.382,57H34V55ZM32,57H24V51h8Zm18-8H6a3,3,0,0,1-3-3V43H18v1a3,3,0,0,0,3,3H35a3,3,0,0,0,3-3V43H53v3A3,3,0,0,1,50,49ZM36,43v1a1,1,0,0,1-1,1H32V43Zm-6,2H26V43h4Zm-6,0H21a1,1,0,0,1-1-1V43h4Zm29-4H3V18a3,3,0,0,1,3-3H27.464a18.037,18.037,0,0,0-.346,2H7a2,2,0,0,0-2,2V37a2,2,0,0,0,2,2H29a2,2,0,0,0,2-2V30.289A17.906,17.906,0,0,0,53,35.1Z" fill="#1194ea"/>
    <path id="Path_576" data-name="Path 576" d="M57,19h2a14.051,14.051,0,0,0-.165-2.152l-1.977.305A11.987,11.987,0,0,1,57,19Z" fill="#1194ea"/>
    <path id="Path_577" data-name="Path 577" d="M56.421,15.308l1.9-.615A13.96,13.96,0,0,0,45,5V7a11.966,11.966,0,0,1,11.421,8.308Z" fill="#1194ea"/>
  </g>
</svg>
