<svg id="html" xmlns="http://www.w3.org/2000/svg" width="68.589" height="68.589" viewBox="0 0 68.589 68.589">
  <g id="Group_238" data-name="Group 238">
    <g id="Group_237" data-name="Group 237">
      <path id="Path_539" data-name="Path 539" d="M0,387.319a5.538,5.538,0,0,0,5.531,5.531H18.807v4.425H14.382v2.213H54.208v-2.213H49.782V392.85H63.058a5.538,5.538,0,0,0,5.531-5.531V384H0Zm47.57,9.956H21.019V392.85H47.57ZM2.213,386.213H66.377v1.106a3.323,3.323,0,0,1-3.319,3.319H5.531a3.323,3.323,0,0,1-3.319-3.319Z" transform="translate(0 -330.899)" fill="#1194ea"/>
      <path id="Path_540" data-name="Path 540" d="M414.638,80H408v2.213h6.638a3.323,3.323,0,0,1,3.319,3.319v34.295h2.213V85.531A5.538,5.538,0,0,0,414.638,80Z" transform="translate(-351.58 -68.937)" fill="#1194ea"/>
      <path id="Path_541" data-name="Path 541" d="M2.213,85.531a3.323,3.323,0,0,1,3.319-3.319h5.531V80H5.531A5.538,5.538,0,0,0,0,85.531v34.295H2.213Z" transform="translate(0 -68.937)" fill="#1194ea"/>
      <path id="Path_542" data-name="Path 542" d="M146.717,112.5v-8.366l-3.926-.981a21.992,21.992,0,0,0-3.033-6.981l-1.849,1.217a19.73,19.73,0,0,1,2.867,6.893l.14.681,3.588.9v4.91l-3.588.9-.14.681a19.713,19.713,0,0,1-2.867,6.893l-.383.581,1.909,3.182-3.471,3.473-3.183-1.911-.581.384a19.671,19.671,0,0,1-6.893,2.867l-.681.141-.9,3.588h-4.91l-.9-3.588-.681-.141a19.672,19.672,0,0,1-6.893-2.867l-.581-.384-3.183,1.911L102.5,122.4l-1.564,1.564,5.3,5.306,3.48-2.09a21.872,21.872,0,0,0,6.39,2.657l.979,3.926h8.366l.981-3.926a21.872,21.872,0,0,0,6.39-2.657l3.48,2.09,5.915-5.916-2.089-3.48a21.878,21.878,0,0,0,2.657-6.389Z" transform="translate(-86.978 -82.876)" fill="#1194ea"/>
      <path id="Path_543" data-name="Path 543" d="M64,21.262v8.366l3.926.981a21.991,21.991,0,0,0,3.033,6.981l1.849-1.217a19.73,19.73,0,0,1-2.867-6.893L69.8,28.8l-3.588-.9V22.99l3.588-.9.141-.681a19.713,19.713,0,0,1,2.867-6.893l.383-.581-1.909-3.183L74.753,7.28l3.183,1.912.581-.384A19.672,19.672,0,0,1,85.41,5.941l.681-.14.9-3.588H91.9L92.8,5.8l.681.14a19.672,19.672,0,0,1,6.893,2.867l.581.384,3.183-1.912,4.082,4.082L109.781,9.8l-5.3-5.3L101,6.583a21.872,21.872,0,0,0-6.39-2.657L93.627,0H85.262L84.28,3.926a21.872,21.872,0,0,0-6.39,2.657L74.41,4.495l-5.915,5.914,2.089,3.481a21.907,21.907,0,0,0-2.657,6.389Z" transform="translate(-55.15)" fill="#1194ea"/>
      <path id="Path_544" data-name="Path 544" d="M151.488,102.976A15.488,15.488,0,1,0,136,87.488,15.5,15.5,0,0,0,151.488,102.976Zm0-28.763a13.275,13.275,0,1,1-13.275,13.275A13.29,13.29,0,0,1,151.488,74.213Z" transform="translate(-117.193 -62.044)" fill="#1194ea"/>
      <path id="Path_545" data-name="Path 545" d="M275.555,145.566l6.122-7.347-6.122-7.347-1.7,1.418,4.941,5.929-4.941,5.929Z" transform="translate(-235.986 -112.774)" fill="#1194ea"/>
      <path id="Path_546" data-name="Path 546" d="M173.405,144.147l-4.941-5.929,4.941-5.929-1.7-1.418-6.122,7.347,6.122,7.347Z" transform="translate(-142.686 -112.774)" fill="#1194ea"/>
      <rect id="Rectangle_1468" data-name="Rectangle 1468" width="2.213" height="13.993" transform="translate(35.458 18.459) rotate(18.446)" fill="#1194ea"/>
    </g>
  </g>
</svg>
